<?xml version="1.0" encoding="UTF-8"?>
<!-- Uploaded to: SVG Find, www.svgrepo.com, Generator: SVG Find Mixer Tools -->
<svg fill="#000000" width="800px" height="800px" version="1.1" viewBox="144 144 512 512" xmlns="http://www.w3.org/2000/svg">
 <g>
  <path d="m602.45 366.75-37.785-4.0312c-4.1992-18.727-11.504-36.441-21.832-52.648l23.848-29.641c2.6875-3.3594 2.4336-8.1445-0.58594-11.168l-35.266-35.266c-3.0234-3.0234-7.8945-3.2734-11.168-0.58594l-29.641 23.848c-16.207-10.242-33.922-17.551-52.648-21.832l-4.0312-37.785c-0.50391-4.3672-4.1172-7.5586-8.3984-7.5586h-49.879c-4.2812 0-7.8945 3.1914-8.3125 7.4727l-4.0312 37.785c-18.727 4.1992-36.441 11.504-52.648 21.832l-29.641-23.848c-3.3594-2.6875-8.1445-2.4336-11.168 0.58594l-35.266 35.266c-3.0234 3.0234-3.2734 7.8945-0.58594 11.168l23.848 29.641c-10.242 16.207-17.551 33.922-21.832 52.648l-37.785 4.0312c-4.3672 0.50781-7.5586 4.1172-7.5586 8.3984v49.879c0 4.2812 3.1914 7.8945 7.4727 8.3125l37.785 4.0312c4.1992 18.727 11.504 36.441 21.832 52.648l-23.848 29.641c-2.6875 3.3594-2.4336 8.1445 0.58594 11.168l35.266 35.266c3.0234 3.0234 7.8945 3.2734 11.168 0.58594l29.641-23.848c16.207 10.242 33.922 17.551 52.648 21.832l4.0312 37.785c0.41797 4.2812 4.0312 7.4727 8.3125 7.4727h49.879c4.2812 0 7.8945-3.1914 8.3125-7.4727l4.0312-37.785c18.727-4.1992 36.441-11.504 52.648-21.832l29.641 23.848c3.3594 2.6875 8.1445 2.4336 11.168-0.58594l35.266-35.266c3.0234-3.0234 3.2734-7.8945 0.58594-11.168l-23.848-29.641c10.242-16.207 17.551-33.922 21.832-52.648l37.785-4.0312c4.2812-0.41797 7.4727-4.0312 7.4727-8.3125v-49.879c0.17188-4.2812-3.0195-7.8906-7.3008-8.3125zm-9.3203 50.633-36.441 3.9453c-3.6953 0.41797-6.6328 3.1914-7.3906 6.8008-3.8633 20.824-11.922 40.223-23.848 57.602-2.0977 3.0234-1.9297 7.1367 0.41797 9.9922l23.008 28.465-24.602 24.602-28.465-23.008c-2.8555-2.3516-6.9688-2.5195-9.9922-0.41797-17.465 11.922-36.863 19.984-57.602 23.848-3.6094 0.67188-6.3828 3.6953-6.8008 7.3906l-4.0312 36.527h-34.762l-3.9453-36.441c-0.41797-3.6953-3.1914-6.6328-6.8008-7.3906-20.824-3.8633-40.223-11.922-57.602-23.848-3.0234-2.0977-7.1367-1.9297-9.9922 0.41797l-28.465 23.008-24.602-24.602 23.008-28.465c2.3516-2.8555 2.5195-6.9688 0.41797-9.9922-11.922-17.465-19.984-36.863-23.848-57.602-0.67187-3.6094-3.6953-6.3828-7.3906-6.8008l-36.527-4.0312v-34.762l36.441-3.9453c3.6953-0.41797 6.6328-3.1914 7.3906-6.8008 3.8633-20.824 11.922-40.223 23.848-57.688 2.0977-3.0234 1.9297-7.1367-0.41797-9.9922l-23.008-28.465 24.602-24.602 28.465 23.008c2.8555 2.3516 6.9688 2.5195 9.9922 0.41797 17.465-11.922 36.863-19.984 57.688-23.848 3.6094-0.67188 6.3828-3.6953 6.8008-7.3906l3.9453-36.441h34.762l3.9453 36.441c0.41797 3.6953 3.1914 6.6328 6.8008 7.3906 20.824 3.8633 40.223 11.922 57.602 23.848 3.0234 2.0977 7.1367 1.9297 9.9922-0.41797l28.465-23.008 24.602 24.602-23.008 28.465c-2.3516 2.8555-2.5195 6.9688-0.41797 9.9922 11.922 17.465 19.984 36.863 23.848 57.688 0.67188 3.6094 3.6953 6.3828 7.3906 6.8008l36.527 3.9453z"/>
  <path d="m400 288.07c-61.715 0-111.93 50.215-111.93 111.93s50.215 111.93 111.93 111.93 111.93-50.215 111.93-111.93c0-61.719-50.215-111.93-111.93-111.93zm0 207.06c-52.48 0-95.137-42.656-95.137-95.137 0-52.48 42.656-95.137 95.137-95.137 52.48 0.003906 95.133 42.66 95.133 95.141s-42.652 95.133-95.133 95.133z"/>
  <path d="m411.92 332.4c-4.5352-0.75391-8.9023 2.2656-9.7422 6.8008l-20.906 118.65c-0.75391 4.5352 2.2656 8.9023 6.8008 9.7422 0.50391 0.082031 1.0078 0.082031 1.4258 0.082031 4.0312 0 7.5586-2.8555 8.2305-6.9688l20.906-118.65c0.84375-4.4492-2.1797-8.8164-6.7148-9.6562z"/>
  <path d="m433.42 369.02c-3.2734 3.2734-3.2734 8.5664 0 11.84l19.145 19.145-19.062 19.062c-3.2734 3.2734-3.2734 8.5664 0 11.84 1.6797 1.6797 3.7773 2.4336 5.9609 2.4336 2.1836 0 4.2812-0.83984 5.9609-2.4336l25.023-25.023c3.2734-3.2734 3.2734-8.5664 0-11.84l-25.023-25.023c-3.3555-3.2773-8.6445-3.2773-12.004 0z"/>
  <path d="m366.58 369.02c-3.2734-3.2734-8.5664-3.2734-11.84 0l-25.023 25.023c-3.2734 3.2734-3.2734 8.5664 0 11.84l25.023 25.023c1.6797 1.6797 3.7773 2.4336 5.9609 2.4336 2.1836 0 4.2812-0.83984 5.9609-2.4336 3.2734-3.2734 3.2734-8.5664 0-11.84l-19.227-19.062 19.062-19.062c3.3594-3.2734 3.3594-8.6484 0.082031-11.922z"/>
 </g>
</svg>